<svg width="320" height="125" viewBox="0 0 320 125" fill="none" xmlns="http://www.w3.org/2000/svg">
<path d="M8.30078 4.62598C17.8258 27.3435 29.5633 52.566 58.9333 48.756C68.2558 47.541 77.0533 43.3635 84.4858 37.6035C87.6883 35.121 90.7183 32.271 92.5633 28.6635C94.4083 25.056 94.9108 20.5785 93.0583 16.9785C88.5508 8.19598 73.0708 7.84348 64.9258 10.341C58.4458 12.3285 52.5958 16.011 47.3083 20.241C38.4808 27.2985 30.9133 36.141 26.3758 46.491C12.7708 77.511 34.8733 117.148 70.6483 114.591C84.8983 113.571 98.1883 106.903 109.851 98.646C129.456 84.7635 146.061 68.361 162.253 50.7885C174.253 37.7685 188.443 25.3785 205.843 22.041C227.241 17.946 249.568 30.351 260.181 48.816C272.451 70.1685 264.628 95.7585 245.563 110.391C236.331 117.478 222.478 118.071 215.721 107.278C211.686 100.828 211.768 92.286 215.031 85.4085C218.293 78.531 224.413 73.281 231.306 70.0635C257.293 57.9135 293.871 66.801 312.388 88.296" stroke="black" stroke-width="18" stroke-miterlimit="10"/>
</svg>
