<svg width="510" height="510" viewBox="0 0 510 510" fill="none" xmlns="http://www.w3.org/2000/svg">
<circle cx="255" cy="255" r="250" fill="black" stroke="black" stroke-width="10"/>
<path d="M102.917 198.75C112.442 221.468 124.179 246.69 153.549 242.88C162.872 241.665 171.669 237.487 179.102 231.727C182.304 229.245 185.334 226.395 187.179 222.787C189.024 219.18 189.527 214.703 187.674 211.103C183.167 202.32 167.687 201.968 159.542 204.465C153.062 206.453 147.212 210.135 141.924 214.365C133.097 221.422 125.529 230.265 120.992 240.615C107.387 271.635 129.489 311.273 165.264 308.715C179.514 307.695 192.804 301.027 204.467 292.77C224.072 278.887 240.677 262.485 256.869 244.912C268.869 231.892 283.059 219.503 300.459 216.165C321.857 212.07 344.184 224.475 354.797 242.94C367.067 264.292 359.244 289.883 340.179 304.515C330.947 311.603 317.094 312.195 310.337 301.403C306.302 294.953 306.384 286.41 309.647 279.532C312.909 272.655 319.029 267.405 325.922 264.188C351.909 252.037 388.487 260.925 407.004 282.42" stroke="white" stroke-width="18" stroke-miterlimit="10"/>
</svg>
